<?xml version="1.0" encoding="UTF-8" standalone="no"?>
<svg width="16px" height="12px" viewBox="0 0 16 12" version="1.1" xmlns="http://www.w3.org/2000/svg" xmlns:xlink="http://www.w3.org/1999/xlink" xmlns:sketch="http://www.bohemiancoding.com/sketch/ns">
    <!-- Generator: Sketch 3.3.3 (12081) - http://www.bohemiancoding.com/sketch -->
    <title>Slice 1</title>
    <desc>Created with Sketch.</desc>
    <defs></defs>
    <g id="Page-1" stroke="none" stroke-width="1" fill="none" fill-rule="evenodd" sketch:type="MSPage">
        <path d="M11.3958333,8.80208333 C11.4305557,8.85069469 11.4479167,8.89583313 11.4479167,8.9375 C11.4479167,8.97916687 11.4305557,9.02430531 11.3958333,9.07291667 L10.0729167,10.3958333 C10.0243053,10.4305557 9.97916688,10.4479167 9.9375,10.4479167 C9.89583312,10.4479167 9.85069469,10.4305557 9.80208333,10.3958333 L7.5,8.09375 L5.19791667,10.3958333 C5.14930531,10.4305557 5.10416688,10.4479167 5.0625,10.4479167 C5.02083312,10.4479167 4.97569469,10.4305557 4.92708333,10.3958333 L3.60416667,9.07291667 C3.56944427,9.02430531 3.55208333,8.97916687 3.55208333,8.9375 C3.55208333,8.89583313 3.56944427,8.85069469 3.60416667,8.80208333 L5.90625,6.5 L3.60416667,4.19791667 C3.56944427,4.14930531 3.55208333,4.10416687 3.55208333,4.0625 C3.55208333,4.02083313 3.56944427,3.97569469 3.60416667,3.92708333 L4.92708333,2.60416667 C4.97569469,2.56944427 5.02083312,2.55208333 5.0625,2.55208333 C5.10416688,2.55208333 5.14930531,2.56944427 5.19791667,2.60416667 L7.5,4.90625 L9.80208333,2.60416667 C9.85069469,2.56944427 9.89583312,2.55208333 9.9375,2.55208333 C9.97916688,2.55208333 10.0243053,2.56944427 10.0729167,2.60416667 L11.3958333,3.92708333 C11.4305557,3.97569469 11.4479167,4.02083313 11.4479167,4.0625 C11.4479167,4.10416687 11.4305557,4.14930531 11.3958333,4.19791667 L9.09375,6.5 L11.3958333,8.80208333 Z" id="close" fill="#FFFFFF" sketch:type="MSShapeGroup"></path>
    </g>
</svg>